<?xml version="1.0" encoding="UTF-8"?>
<svg version="1.1" xmlns="http://www.w3.org/2000/svg" width="1024" height="1024">
<path d="M0 0 C0.84986984 -0.00570007 1.69973969 -0.01140015 2.57536316 -0.01727295 C4.36785667 -0.02666068 6.16036696 -0.03323192 7.95288086 -0.03710938 C10.62321358 -0.04671402 13.29274108 -0.07775513 15.96289062 -0.109375 C29.94016451 -0.19518551 44.60837043 0.30870015 57.85546875 5.203125 C57.85546875 5.863125 57.85546875 6.523125 57.85546875 7.203125 C58.67337891 7.36748047 58.67337891 7.36748047 59.5078125 7.53515625 C74.41914508 10.67035951 74.41914508 10.67035951 78.85546875 15.203125 C80.85144095 15.88175555 82.85115426 16.54954419 84.85546875 17.203125 C85.18546875 17.863125 85.51546875 18.523125 85.85546875 19.203125 C86.84546875 19.533125 87.83546875 19.863125 88.85546875 20.203125 C90.04296875 22.765625 90.04296875 22.765625 90.85546875 25.203125 C92.83546875 24.708125 92.83546875 24.708125 94.85546875 24.203125 C95.30277344 24.73421875 95.75007813 25.2653125 96.2109375 25.8125 C98.89946246 28.9538895 101.39398134 31.84419035 104.66796875 34.390625 C107.18829664 36.47889668 107.7878277 38.16445431 108.85546875 41.203125 C109.51546875 41.533125 110.17546875 41.863125 110.85546875 42.203125 C111.92010953 44.13278641 112.81352195 46.11053972 113.72265625 48.1171875 C115.28161701 50.98782559 117.39845212 53.14044446 119.61328125 55.51953125 C120.85546875 57.203125 120.85546875 57.203125 120.85546875 60.203125 C121.51546875 60.533125 122.17546875 60.863125 122.85546875 61.203125 C122.52546875 61.863125 122.19546875 62.523125 121.85546875 63.203125 C122.51546875 63.533125 123.17546875 63.863125 123.85546875 64.203125 C124.57592639 66.1843835 125.23548134 68.18816593 125.85546875 70.203125 C126.18546875 71.028125 126.51546875 71.853125 126.85546875 72.703125 C128.59311206 77.04723329 129.85546875 80.48086283 129.85546875 85.203125 C130.51546875 85.203125 131.17546875 85.203125 131.85546875 85.203125 C131.83484375 86.0075 131.81421875 86.811875 131.79296875 87.640625 C131.55913254 90.13667385 131.55913254 90.13667385 132.85546875 91.203125 C132.96328145 94.20420686 133.00499294 97.18248263 133.00505066 100.18432617 C133.00887719 101.13846531 133.01270372 102.09260445 133.01664621 103.07565689 C133.02807223 106.29914172 133.03204603 109.52259155 133.03588867 112.74609375 C133.04210995 115.04688092 133.04863762 117.34766727 133.05545044 119.64845276 C133.11022882 140.67870329 133.0954907 161.70924107 133.06457043 182.73953247 C133.06056874 185.55535871 133.05670534 188.3711851 133.05297852 191.18701172 C133.0520455 191.88687989 133.05111249 192.58674807 133.05015121 193.30782437 C133.03613581 204.63442625 133.06023292 215.96062659 133.09932681 227.28715622 C133.13872252 238.91634465 133.13950197 250.54504537 133.10605699 262.17425442 C133.08838291 268.70356503 133.08781752 275.2318484 133.1285305 281.76107788 C133.16614285 287.90773072 133.15664988 294.05252718 133.11124039 300.19911003 C133.10278558 302.45291301 133.11135223 304.70685512 133.13835716 306.96051216 C133.32835269 324.01281528 133.32835269 324.01281528 129.68255043 329.43444824 C127.18479038 331.68819861 124.68383864 333.39956692 121.85546875 335.203125 C119.71136167 337.43276709 119.71136167 337.43276709 117.98046875 339.640625 C115.77960248 342.37788331 114.00676296 343.69023952 110.85546875 345.203125 C110.39140625 346.13125 110.39140625 346.13125 109.91796875 347.078125 C108.47855065 349.95696121 106.37340216 351.18877827 103.85546875 353.203125 C102.03838504 355.17821599 100.29729539 357.20849392 98.55078125 359.24609375 C95.75595474 362.47237966 92.87563899 365.42457403 89.48046875 368.015625 C86.46542425 370.52816208 84.03787618 373.31390719 81.50390625 376.30078125 C80.00920273 378.02571161 78.56357949 379.68847431 76.85546875 381.203125 C76.19546875 381.203125 75.53546875 381.203125 74.85546875 381.203125 C74.52546875 382.193125 74.19546875 383.183125 73.85546875 384.203125 C72.23443907 385.91421189 70.56043412 387.57565806 68.85546875 389.203125 C67.98921875 390.069375 67.12296875 390.935625 66.23046875 391.828125 C64.90718304 393.15141071 63.56667697 394.4598288 62.16796875 395.703125 C60.69390113 397.19456895 60.69390113 397.19456895 60.07421875 399.515625 C58.5865129 402.79620713 56.77620015 404.37557563 54.04296875 406.703125 C53.14707031 407.48171875 52.25117187 408.2603125 51.328125 409.0625 C50.10416016 410.12210937 50.10416016 410.12210937 48.85546875 411.203125 C46.36728712 413.58312482 44.12876332 415.84501488 42.04296875 418.578125 C39.59671112 421.51363415 36.89884946 423.83579506 34.00390625 426.31640625 C29.25306723 430.48850669 24.83197232 434.96417905 20.79296875 439.828125 C17.84895734 443.33674134 14.61103667 446.56067644 10.85546875 449.203125 C10.19546875 449.203125 9.53546875 449.203125 8.85546875 449.203125 C8.51515625 450.0384375 8.51515625 450.0384375 8.16796875 450.890625 C6.48169608 453.86167685 4.32511475 455.84834625 1.85546875 458.203125 C0.96859375 459.13125 0.08171875 460.059375 -0.83203125 461.015625 C-3.14453125 463.203125 -3.14453125 463.203125 -5.14453125 463.203125 C-5.47453125 464.193125 -5.80453125 465.183125 -6.14453125 466.203125 C-6.80453125 466.203125 -7.46453125 466.203125 -8.14453125 466.203125 C-8.14453125 466.863125 -8.14453125 467.523125 -8.14453125 468.203125 C-9.75390625 469.75390625 -9.75390625 469.75390625 -11.89453125 471.515625 C-14.2451377 473.50870914 -16.21371483 475.28960448 -18.14453125 477.703125 C-19.84118892 479.82394709 -21.32498064 481.26116707 -23.3840332 482.97998047 C-30.02195816 488.73141458 -36.11824406 495.0540857 -42.3125 501.2734375 C-43.67892322 502.6417298 -45.04557035 504.00979852 -46.41242981 505.37765503 C-49.99159374 508.96061516 -53.56774589 512.54656638 -57.14324951 516.13317871 C-60.77923097 519.77940066 -64.41805011 523.42278822 -68.05664062 527.06640625 C-73.93190185 532.95042848 -79.80545701 538.83614708 -85.67669678 544.72418213 C-88.08935485 547.1435844 -90.50324234 549.56170789 -92.91970825 551.97731018 C-94.7604839 553.81890644 -96.58813171 555.67127364 -98.40625 557.53515625 C-99.54811431 558.69537429 -100.69004224 559.85552971 -101.83203125 561.015625 C-102.41275391 561.61310547 -102.99347656 562.21058594 -103.59179688 562.82617188 C-105.07178701 564.32327173 -106.60435907 565.76801231 -108.14453125 567.203125 C-108.80453125 567.203125 -109.46453125 567.203125 -110.14453125 567.203125 C-110.37140625 567.75484375 -110.59828125 568.3065625 -110.83203125 568.875 C-112.53179051 571.89004917 -114.69257941 574.01542869 -117.14453125 576.453125 C-118.03140625 577.34515625 -118.91828125 578.2371875 -119.83203125 579.15625 C-122.14453125 581.203125 -122.14453125 581.203125 -124.14453125 581.203125 C-124.80453125 582.523125 -125.46453125 583.843125 -126.14453125 585.203125 C-126.80453125 585.203125 -127.46453125 585.203125 -128.14453125 585.203125 C-128.54671875 586.1003125 -128.54671875 586.1003125 -128.95703125 587.015625 C-130.14453125 589.203125 -130.14453125 589.203125 -131.69704342 590.47733498 C-133.78717753 592.96933008 -133.50823083 594.78131338 -133.49183655 598.00326538 C-133.49307022 599.21392166 -133.49430389 600.42457794 -133.49557495 601.67192078 C-133.48176619 603.01614649 -133.46768848 604.36036947 -133.45336914 605.70458984 C-133.44924853 607.11921369 -133.44647939 608.53384203 -133.44496155 609.94847107 C-133.43885938 612.99983648 -133.42332236 616.0509589 -133.4005909 619.10224533 C-133.3647318 623.94735663 -133.35080107 628.79238101 -133.33995056 633.63760376 C-133.31578765 643.07698822 -133.26918732 652.5161988 -133.2203598 661.95548248 C-133.15963569 673.90408992 -133.10953711 685.85271103 -133.07836527 697.80143321 C-133.06728594 701.8179191 -133.05158898 705.83427498 -133.02476692 709.85068893 C-132.91237549 726.72274662 -132.90989714 743.44074984 -135.14453125 760.203125 C-135.30941544 761.46885345 -135.47429962 762.73458191 -135.6441803 764.03866577 C-136.15395954 767.26275402 -137.02473687 770.14235369 -138.14453125 773.203125 C-138.80453125 773.203125 -139.46453125 773.203125 -140.14453125 773.203125 C-139.81453125 774.523125 -139.48453125 775.843125 -139.14453125 777.203125 C-139.80453125 777.203125 -140.46453125 777.203125 -141.14453125 777.203125 C-141.80453125 780.833125 -142.46453125 784.463125 -143.14453125 788.203125 C-143.80453125 788.203125 -144.46453125 788.203125 -145.14453125 788.203125 C-145.80453125 790.513125 -146.46453125 792.823125 -147.14453125 795.203125 C-147.80453125 795.203125 -148.46453125 795.203125 -149.14453125 795.203125 C-148.81453125 796.193125 -148.48453125 797.183125 -148.14453125 798.203125 C-149.13453125 798.203125 -150.12453125 798.203125 -151.14453125 798.203125 C-151.47453125 800.513125 -151.80453125 802.823125 -152.14453125 805.203125 C-153.13453125 805.533125 -154.12453125 805.863125 -155.14453125 806.203125 C-155.14453125 807.193125 -155.14453125 808.183125 -155.14453125 809.203125 C-156.13453125 809.863125 -157.12453125 810.523125 -158.14453125 811.203125 C-158.14453125 811.863125 -158.14453125 812.523125 -158.14453125 813.203125 C-159.47786458 814.53645833 -160.81119792 815.86979167 -162.14453125 817.203125 C-162.43328125 817.863125 -162.72203125 818.523125 -163.01953125 819.203125 C-164.14453125 821.203125 -164.14453125 821.203125 -166.859375 822.94140625 C-170.45545035 825.41718226 -173.00255099 828.11001083 -175.83203125 831.390625 C-180.74775304 837.0708656 -180.74775304 837.0708656 -184.14453125 838.203125 C-184.80453125 838.863125 -185.46453125 839.523125 -186.14453125 840.203125 C-187.15515625 840.698125 -188.16578125 841.193125 -189.20703125 841.703125 C-192.23059807 842.88092612 -192.23059807 842.88092612 -193.14453125 845.203125 C-195.42109009 845.76446828 -197.69777459 846.09558868 -200.015625 846.4453125 C-200.71816406 846.69539062 -201.42070312 846.94546875 -202.14453125 847.203125 C-202.59505859 848.16605469 -202.59505859 848.16605469 -203.0546875 849.1484375 C-204.14453125 851.203125 -204.14453125 851.203125 -206.75 852.32421875 C-211.37831952 853.52257536 -216.01136846 854.68291172 -220.66210938 855.79101562 C-224.19423431 856.40774927 -224.19423431 856.40774927 -227.14453125 858.203125 C-237.53261849 860.03651695 -247.89702927 860.52420667 -258.42626953 860.46386719 C-260.6438325 860.45312838 -262.86058591 860.46385454 -265.078125 860.4765625 C-279.73616916 860.49102644 -294.37041472 859.52952754 -307.95703125 853.578125 C-310.74650168 852.37482403 -313.15674816 851.65581941 -316.14453125 851.203125 C-316.14453125 850.213125 -316.14453125 849.223125 -316.14453125 848.203125 C-316.82515625 848.1 -317.50578125 847.996875 -318.20703125 847.890625 C-322.43555414 846.90097071 -326.26886839 845.14095643 -330.14453125 843.203125 C-330.76328125 842.935 -331.38203125 842.666875 -332.01953125 842.390625 C-334.50007242 841.00444023 -336.14459484 839.20306141 -338.14453125 837.203125 C-338.80453125 837.203125 -339.46453125 837.203125 -340.14453125 837.203125 C-343.14453125 833.74158654 -343.14453125 833.74158654 -343.14453125 831.203125 C-343.88703125 831.120625 -344.62953125 831.038125 -345.39453125 830.953125 C-348.67976322 830.05715264 -349.89051279 828.69031778 -352.14453125 826.203125 C-352.80453125 825.873125 -353.46453125 825.543125 -354.14453125 825.203125 C-354.26828125 824.39875 -354.39203125 823.594375 -354.51953125 822.765625 C-354.72578125 821.92 -354.93203125 821.074375 -355.14453125 820.203125 C-356.46100244 819.50374968 -357.79475276 818.83583367 -359.14453125 818.203125 C-359.51663545 816.88008783 -359.85083298 815.54574565 -360.14453125 814.203125 C-361.13453125 813.543125 -362.12453125 812.883125 -363.14453125 812.203125 C-363.47453125 811.213125 -363.80453125 810.223125 -364.14453125 809.203125 C-364.80453125 808.873125 -365.46453125 808.543125 -366.14453125 808.203125 C-366.86402308 806.55857225 -367.51424538 804.88388731 -368.14453125 803.203125 C-369.19827806 800.89298776 -370.26436972 798.5891639 -371.33984375 796.2890625 C-372.14453125 794.203125 -372.14453125 794.203125 -372.14453125 791.203125 C-372.80453125 791.203125 -373.46453125 791.203125 -374.14453125 791.203125 C-374.14453125 790.543125 -374.14453125 789.883125 -374.14453125 789.203125 C-374.80453125 789.203125 -375.46453125 789.203125 -376.14453125 789.203125 C-377.08777383 784.89115891 -377.6249484 780.58246619 -378.14453125 776.203125 C-378.80453125 776.203125 -379.46453125 776.203125 -380.14453125 776.203125 C-380.12390625 775.39875 -380.10328125 774.594375 -380.08203125 773.765625 C-379.84819504 771.26957615 -379.84819504 771.26957615 -381.14453125 770.203125 C-384.16580267 755.70852706 -383.42363517 740.67489667 -383.38025069 725.95477366 C-383.37135418 722.29191833 -383.37322977 718.62906572 -383.37361145 714.96620178 C-383.37268077 708.82974076 -383.36407279 702.69332981 -383.3503418 696.55688477 C-383.33455943 689.4777975 -383.32934622 682.39876466 -383.33007735 675.31966108 C-383.33075379 667.74472198 -383.32381507 660.16980362 -383.31463075 652.59487081 C-383.31250688 650.42499604 -383.31179063 648.25512465 -383.31139183 646.08524895 C-383.31019639 642.04110041 -383.30046854 637.99701548 -383.28979492 633.95288086 C-383.29024811 632.75953629 -383.29070129 631.56619171 -383.29116821 630.33668518 C-383.26448389 623.41949195 -383.02017186 616.90184147 -381.14453125 610.203125 C-380.48453125 610.203125 -379.82453125 610.203125 -379.14453125 610.203125 C-379.00015625 608.945 -378.85578125 607.686875 -378.70703125 606.390625 C-378.40704439 603.77645377 -377.98639828 601.72872608 -377.14453125 599.203125 C-376.48453125 598.873125 -375.82453125 598.543125 -375.14453125 598.203125 C-374.44301973 596.8877909 -373.779272 595.55194908 -373.14453125 594.203125 C-372.48453125 593.213125 -371.82453125 592.223125 -371.14453125 591.203125 C-370.48453125 591.203125 -369.82453125 591.203125 -369.14453125 591.203125 C-369.14453125 590.543125 -369.14453125 589.883125 -369.14453125 589.203125 C-368.48453125 588.543125 -367.82453125 587.883125 -367.14453125 587.203125 C-366.85578125 586.543125 -366.56703125 585.883125 -366.26953125 585.203125 C-364.90816085 582.78291096 -363.6790657 582.21693878 -361.14453125 581.203125 C-361.14453125 580.543125 -361.14453125 579.883125 -361.14453125 579.203125 C-359.73938614 578.31205737 -358.33373984 577.42177168 -356.92578125 576.53515625 C-354.1293057 574.44393221 -352.04335366 571.81414242 -349.8046875 569.15234375 C-347.71575964 566.69969669 -345.42178362 564.48037737 -343.14453125 562.203125 C-341.99984375 560.78 -341.99984375 560.78 -340.83203125 559.328125 C-338.83829812 556.87814573 -336.67833263 554.87026875 -334.26953125 552.828125 C-330.7363888 549.82062898 -327.73495572 546.58207692 -324.734375 543.05078125 C-322.65888916 540.63873014 -320.42359757 538.42221589 -318.14453125 536.203125 C-317.25765625 535.275 -316.37078125 534.346875 -315.45703125 533.390625 C-313.14453125 531.203125 -313.14453125 531.203125 -311.14453125 531.203125 C-310.88027344 530.59984375 -310.61601562 529.9965625 -310.34375 529.375 C-309.08698051 527.0988963 -307.99012963 526.03494067 -305.95703125 524.453125 C-303.20663727 522.19917143 -300.88120811 519.85365369 -298.58203125 517.140625 C-295.70152012 513.74688249 -292.5677559 511.0558122 -289.14453125 508.203125 C-287.26560801 506.09920465 -285.44961615 503.95774421 -283.66015625 501.77734375 C-283.16 501.25785156 -282.65984375 500.73835938 -282.14453125 500.203125 C-281.48453125 500.203125 -280.82453125 500.203125 -280.14453125 500.203125 C-279.89316406 499.62433594 -279.64179688 499.04554688 -279.3828125 498.44921875 C-277.98860211 495.92028823 -276.40662767 494.2688204 -274.33203125 492.265625 C-273.26082031 491.22148438 -273.26082031 491.22148438 -272.16796875 490.15625 C-271.50023437 489.51171875 -270.8325 488.8671875 -270.14453125 488.203125 C-269.25765625 487.31625 -268.37078125 486.429375 -267.45703125 485.515625 C-263.80078125 481.859375 -263.80078125 481.859375 -260.14453125 478.203125 C-259.46132813 477.50832031 -258.778125 476.81351563 -258.07421875 476.09765625 C-254.65740605 472.64030509 -251.27248218 469.23427374 -247.51953125 466.140625 C-244.28699042 463.44435822 -241.62642981 460.41924573 -238.90234375 457.21875 C-236.14117565 454.05261058 -233.14287015 451.14202547 -230.14453125 448.203125 C-227.22504448 445.29897704 -224.32862384 442.37356245 -221.4453125 439.43359375 C-220.11597556 438.08584858 -218.78654673 436.73819404 -217.45703125 435.390625 C-216.78091797 434.69775391 -216.10480469 434.00488281 -215.40820312 433.29101562 C-214.76044922 432.63681641 -214.11269531 431.98261719 -213.4453125 431.30859375 C-212.85919189 430.71199951 -212.27307129 430.11540527 -211.66918945 429.50073242 C-210.14453125 428.203125 -210.14453125 428.203125 -208.14453125 428.203125 C-207.88414062 427.61917969 -207.62375 427.03523438 -207.35546875 426.43359375 C-206.06669631 424.05975806 -204.66944585 422.42798446 -202.76953125 420.515625 C-202.18429687 419.91363281 -201.5990625 419.31164062 -200.99609375 418.69140625 C-199.14453125 417.203125 -199.14453125 417.203125 -197.18359375 416.78515625 C-194.13644318 415.91537572 -192.90933121 413.9770415 -190.89453125 411.578125 C-188.13926541 408.4003551 -185.43756431 405.45882802 -182.20703125 402.765625 C-177.75959761 399.04302461 -174.04099505 394.72800519 -170.24609375 390.36328125 C-169.55257812 389.65042969 -168.8590625 388.93757813 -168.14453125 388.203125 C-167.48453125 388.203125 -166.82453125 388.203125 -166.14453125 388.203125 C-165.89316406 387.61273438 -165.64179688 387.02234375 -165.3828125 386.4140625 C-163.98966719 383.92661693 -162.53488364 382.62241777 -160.33203125 380.828125 C-156.80487222 377.84850329 -154.03314183 374.79437058 -151.14453125 371.203125 C-149.4909018 369.52352231 -147.82183966 367.85908154 -146.14453125 366.203125 C-145.09169795 365.15179217 -144.03964891 364.09967352 -142.98828125 363.046875 C-140.75911458 360.81770833 -138.52994792 358.58854167 -136.30078125 356.359375 C-135.76646484 355.82489746 -135.23214844 355.29041992 -134.68164062 354.73974609 C-133.27459682 353.33314925 -131.86589787 351.92820858 -130.45703125 350.5234375 C-129.06089346 349.12258303 -127.67287188 347.71347862 -126.30078125 346.2890625 C-123.73942231 343.64313038 -121.54006599 341.43165618 -118.33203125 339.578125 C-115.53955826 337.82285626 -115.21341568 336.25708052 -114.14453125 333.203125 C-113.63800333 332.73974322 -113.13147541 332.27636145 -112.60959816 331.7989378 C-110.76047526 329.78479499 -110.78509772 328.86756875 -110.82846069 326.17012024 C-110.83419916 325.34681119 -110.83993763 324.52350214 -110.84584999 323.67524433 C-110.86755445 322.77090247 -110.88925892 321.86656061 -110.91162109 320.93481445 C-110.92251455 319.97381679 -110.93340801 319.01281912 -110.94463158 318.02270031 C-110.98445672 314.78692485 -111.04542262 311.5518647 -111.10546875 308.31640625 C-111.13664285 306.00128255 -111.16616468 303.68613609 -111.19415283 301.37097168 C-111.2564806 296.37573218 -111.32676162 291.38069496 -111.40313721 286.38565063 C-111.59439551 273.72593369 -111.73085347 261.06557016 -111.85800314 248.40507102 C-111.87197936 247.01638505 -111.88610893 245.62770061 -111.90038919 244.23901772 C-112.22634603 212.49558595 -112.09310082 180.76044782 -111.80524445 149.01723862 C-111.76906281 145.00814385 -111.73629692 140.99902469 -111.70379639 136.98989868 C-111.65204622 130.69413423 -111.59430912 124.39845623 -111.53090668 118.10279846 C-111.50789288 115.78565247 -111.4862074 113.46849287 -111.46591949 111.15132141 C-111.4374028 107.9963951 -111.40257012 104.84160608 -111.36572266 101.68676758 C-111.35839804 100.76058782 -111.35107342 99.83440805 -111.34352684 98.88016224 C-111.33229097 98.0371289 -111.32105511 97.19409555 -111.30947876 96.32551575 C-111.30172739 95.59662045 -111.29397602 94.86772516 -111.28598976 94.11674213 C-111.14453125 92.203125 -111.14453125 92.203125 -110.14453125 89.203125 C-110.14453125 88.213125 -110.14453125 87.223125 -110.14453125 86.203125 C-109.48453125 86.203125 -108.82453125 86.203125 -108.14453125 86.203125 C-108.06203125 84.945 -107.97953125 83.686875 -107.89453125 82.390625 C-107.28151087 76.64470259 -105.28724815 71.53500193 -103.14453125 66.203125 C-102.48453125 66.203125 -101.82453125 66.203125 -101.14453125 66.203125 C-101.47453125 65.213125 -101.80453125 64.223125 -102.14453125 63.203125 C-101.48453125 63.203125 -100.82453125 63.203125 -100.14453125 63.203125 C-99.48453125 60.233125 -98.82453125 57.263125 -98.14453125 54.203125 C-97.15453125 54.203125 -96.16453125 54.203125 -95.14453125 54.203125 C-95.14453125 52.883125 -95.14453125 51.563125 -95.14453125 50.203125 C-93.65953125 49.708125 -93.65953125 49.708125 -92.14453125 49.203125 C-92.14453125 48.213125 -92.14453125 47.223125 -92.14453125 46.203125 C-91.48453125 46.203125 -90.82453125 46.203125 -90.14453125 46.203125 C-90.14453125 44.883125 -90.14453125 43.563125 -90.14453125 42.203125 C-88.15763394 40.85034385 -86.15707907 39.51744195 -84.14453125 38.203125 C-83.77242705 36.88008783 -83.43822952 35.54574565 -83.14453125 34.203125 C-81.51517884 32.82444219 -79.84703518 31.49038407 -78.14453125 30.203125 C-77.48453125 29.213125 -76.82453125 28.223125 -76.14453125 27.203125 C-75.50515625 27.079375 -74.86578125 26.955625 -74.20703125 26.828125 C-71.86430078 26.3702064 -71.86430078 26.3702064 -70.64453125 23.703125 C-69.14453125 21.203125 -69.14453125 21.203125 -67.08203125 20.515625 C-66.44265625 20.4125 -65.80328125 20.309375 -65.14453125 20.203125 C-64.48453125 19.543125 -63.82453125 18.883125 -63.14453125 18.203125 C-62.48453125 18.533125 -61.82453125 18.863125 -61.14453125 19.203125 C-61.14453125 18.213125 -61.14453125 17.223125 -61.14453125 16.203125 C-59.82453125 16.203125 -58.50453125 16.203125 -57.14453125 16.203125 C-56.81453125 15.543125 -56.48453125 14.883125 -56.14453125 14.203125 C-55.48453125 13.873125 -54.82453125 13.543125 -54.14453125 13.203125 C-53.48453125 13.533125 -52.82453125 13.863125 -52.14453125 14.203125 C-51.81453125 13.543125 -51.48453125 12.883125 -51.14453125 12.203125 C-46.35870666 9.10984813 -41.78070558 7.67280619 -36.14453125 7.203125 C-36.14453125 6.543125 -36.14453125 5.883125 -36.14453125 5.203125 C-33.33333821 4.5511223 -30.52078094 3.90642379 -27.70703125 3.265625 C-26.92392578 3.08322266 -26.14082031 2.90082031 -25.33398438 2.71289062 C-24.55087891 2.53564453 -23.76777344 2.35839844 -22.9609375 2.17578125 C-22.25396729 2.01343994 -21.54699707 1.85109863 -20.81860352 1.68383789 C-13.89988521 0.44007305 -7.01930661 0.03787452 0 0 Z " fill="#277BFF" transform="translate(499.14453125,48.796875)"/>
<path d="M0 0 C0 0.66 0 1.32 0 2 C1.41601714 2.48108275 2.83284437 2.95978141 4.25 3.4375 C5.03890625 3.70433594 5.8278125 3.97117187 6.640625 4.24609375 C8.74821988 4.91954708 10.84753973 5.49150595 13 6 C13 6.99 13 7.98 13 9 C14.485 8.505 14.485 8.505 16 8 C18.0625 8.875 18.0625 8.875 20 10 C20.66 10.33 21.32 10.66 22 11 C22 11.99 22 12.98 22 14 C23.98 13.505 23.98 13.505 26 13 C26 13.66 26 14.32 26 15 C26.8353125 15.0928125 26.8353125 15.0928125 27.6875 15.1875 C30.98120783 16.3447487 32.59504754 18.48318929 35 21 C36.82917185 22.54955322 38.67890499 24.06781488 40.546875 25.5703125 C42 27 42 27 43 30 C43.825 30.309375 44.65 30.61875 45.5 30.9375 C46.7375 31.4634375 46.7375 31.4634375 48 32 C48.625 34.0625 48.625 34.0625 49 36 C49.99 36.33 50.98 36.66 52 37 C52 38.32 52 39.64 52 41 C52.9793879 42.02019573 53.97895449 43.02149805 55 44 C55 44.99 55 45.98 55 47 C56.485 46.505 56.485 46.505 58 46 C58.33 47.98 58.66 49.96 59 52 C59.99 52.33 60.98 52.66 62 53 C62.73046875 55.06640625 62.73046875 55.06640625 63.1875 57.5625 C63.34605469 58.38878906 63.50460937 59.21507812 63.66796875 60.06640625 C63.77753906 60.70449219 63.88710938 61.34257812 64 62 C64.66 62 65.32 62 66 62 C66.50692692 63.5811292 67.00526443 65.16501383 67.5 66.75 C67.7784375 67.63171875 68.056875 68.5134375 68.34375 69.421875 C69 72 69 72 69 76 C69.66 76 70.32 76 71 76 C77.08107085 95.58104815 76.26328017 116.48301624 76.03379035 136.74567556 C75.99617254 140.25495994 75.97044841 143.76433572 75.94306946 147.27371216 C75.89557662 153.14496206 75.83990113 159.01608622 75.77856445 164.88720703 C75.707895 171.65674477 75.64820154 178.42630895 75.59470528 185.19600284 C75.53728278 192.45442445 75.4726611 199.71276821 75.40554833 206.97110605 C75.38679463 209.04629117 75.36929747 211.12148379 75.3520565 213.19668198 C75.31947215 217.06071137 75.27873428 220.92463168 75.23706055 224.78857422 C75.22816299 225.92730988 75.21926544 227.06604553 75.21009827 228.23928833 C75.12883832 235.00897094 74.83577647 241.44365547 73 248 C72.34 248 71.68 248 71 248 C71 249.32 71 250.64 71 252 C70.34 252 69.68 252 69 252 C68.87625 252.86625 68.7525 253.7325 68.625 254.625 C68.01223154 257.93394971 67.2742209 260.8852378 66 264 C65.01 264.66 64.02 265.32 63 266 C62.67 266.99 62.34 267.98 62 269 C60.50390625 270.5078125 60.50390625 270.5078125 58.5625 272.125 C57.840625 272.73988281 57.11875 273.35476563 56.375 273.98828125 C55.199375 274.98408203 55.199375 274.98408203 54 276 C47.99332299 281.18845979 42.52574366 286.54507284 37.296875 292.515625 C34.14787374 295.92168758 30.69545374 298.92090979 27.2109375 301.9765625 C25.40858132 303.62606868 23.88101553 305.214685 22.375 307.125 C20.41801045 309.49398736 18.63864242 311.23132059 16.3125 313.1875 C11.91059467 316.92953717 8.12919769 321.13480451 4.296875 325.44921875 C2 328 2 328 -0.234375 330.14453125 C-2.22832786 331.97683191 -2.22832786 331.97683191 -3 335 C-3.66 335 -4.32 335 -5 335 C-5.24363281 335.56976563 -5.48726562 336.13953125 -5.73828125 336.7265625 C-8.91788824 342.45576148 -14.68793763 346.97357768 -19.6875 351.125 C-22.03047142 353.07568492 -23.99769024 355.0857414 -25.9375 357.4375 C-28.70585796 360.79061806 -31.79248217 363.54924876 -35.10546875 366.35546875 C-36.78920884 367.81702458 -38.33654415 369.32643266 -39.875 370.9375 C-42 373 -42 373 -44 373 C-44.23332031 373.55945313 -44.46664063 374.11890625 -44.70703125 374.6953125 C-46.32539276 377.58000522 -48.32970078 379.55691869 -50.6875 381.875 C-51.57824219 382.7515625 -52.46898437 383.628125 -53.38671875 384.53125 C-55.53895922 386.56445774 -57.71799063 388.49174174 -60 390.375 C-62.69971927 392.73725436 -63.68821795 393.83406446 -65 397 C-65 397.66 -65 398.32 -65 399 C-65.66 399 -66.32 399 -67 399 C-67.21011719 399.54785156 -67.42023438 400.09570312 -67.63671875 400.66015625 C-69.49109331 403.84287936 -72.07661451 406.032435 -74.8125 408.4375 C-75.86168979 409.37256284 -76.90987625 410.30875276 -77.95703125 411.24609375 C-78.4689502 411.70419434 -78.98086914 412.16229492 -79.50830078 412.63427734 C-81.7464595 414.68341971 -83.8725548 416.8369192 -86 419 C-90 423 -94 427 -98 431 C-98.59554688 431.60714844 -99.19109375 432.21429687 -99.8046875 432.83984375 C-103.79024264 436.87967688 -107.88347161 440.6997108 -112.1796875 444.40625 C-115.31808076 447.15402779 -118.22624825 449.93967353 -120.6875 453.3125 C-121.120625 453.869375 -121.55375 454.42625 -122 455 C-122.66 455 -123.32 455 -124 455 C-124.09410156 455.57234375 -124.18820312 456.1446875 -124.28515625 456.734375 C-125.16511749 459.52332319 -126.49815152 461.07276886 -128.4375 463.25 C-129.05496094 463.95640625 -129.67242188 464.6628125 -130.30859375 465.390625 C-132 467 -132 467 -134 467 C-134.25394531 467.59296875 -134.50789063 468.1859375 -134.76953125 468.796875 C-136.13626374 471.24397699 -137.51742982 472.49347954 -139.6875 474.25 C-143.39848766 477.36048239 -146.43868164 480.71777963 -149.45703125 484.49609375 C-151 486 -151 486 -154 486 C-154.24838623 486.57435791 -154.49677246 487.14871582 -154.75268555 487.74047852 C-156.18736939 490.33942136 -157.84318058 492.06959671 -159.95703125 494.15234375 C-160.74013672 494.92900391 -161.52324219 495.70566406 -162.33007812 496.50585938 C-163.14927734 497.30830078 -163.96847656 498.11074219 -164.8125 498.9375 C-165.62009766 499.73607422 -166.42769531 500.53464844 -167.25976562 501.35742188 C-168.81656473 502.8963707 -170.37648944 504.43216589 -171.93994141 505.96435547 C-173.63731995 507.64161812 -175.29705531 509.34512478 -176.94921875 511.06640625 C-179 513 -179 513 -181 513 C-181.3403125 513.804375 -181.3403125 513.804375 -181.6875 514.625 C-183.46935182 517.84930329 -185.48082298 520.29649295 -188 523 C-188.99 523 -189.98 523 -191 523 C-191.33 524.65 -191.66 526.3 -192 528 C-192.66 528 -193.32 528 -194 528 C-193.83789661 528.63615549 -193.67579323 529.27231098 -193.50877762 529.92774391 C-192.83069559 534.02234549 -192.85539467 538.01255995 -192.85955811 542.15609741 C-192.85658698 543.08083599 -192.85361586 544.00557456 -192.8505547 544.95833552 C-192.84187967 548.05865863 -192.84036043 551.15894306 -192.83886719 554.25927734 C-192.83423799 556.48195478 -192.8292132 558.70463141 -192.82382202 560.92730713 C-192.81070166 566.96914754 -192.80425321 573.01097683 -192.79981136 579.05282927 C-192.79687871 582.83115634 -192.79277343 586.60948039 -192.78830719 590.38780594 C-192.77619711 600.86386899 -192.76581669 611.33993025 -192.7624321 621.81599998 C-192.76210275 622.82124948 -192.76210275 622.82124948 -192.76176675 623.84680704 C-192.76154847 624.51852279 -192.76133019 625.19023854 -192.7611053 625.88230932 C-192.76066184 627.24331689 -192.76021528 628.60432446 -192.75976562 629.96533203 C-192.75943348 630.97797904 -192.75943348 630.97797904 -192.75909463 632.01108356 C-192.75515388 642.92909288 -192.73772231 653.84703516 -192.7144061 664.76501863 C-192.69062062 675.99418364 -192.67848421 687.22331633 -192.67706418 698.45251048 C-192.67601885 704.74911466 -192.67016949 711.04562436 -192.65224457 717.34220505 C-192.63568935 723.27329414 -192.63364444 729.20421852 -192.64238358 735.13532257 C-192.6431501 737.30275796 -192.63886248 739.47020246 -192.62892532 741.6376152 C-192.57778307 753.49564726 -193.0326596 764.47689962 -196 776 C-196.19676708 776.79077124 -196.39353416 777.58154247 -196.59626389 778.39627647 C-196.7294968 778.92550524 -196.86272972 779.454734 -197 780 C-197.66 780 -198.32 780 -199 780 C-198.67 781.65 -198.34 783.3 -198 785 C-198.66 785 -199.32 785 -200 785 C-200.10957031 785.56589844 -200.21914063 786.13179687 -200.33203125 786.71484375 C-200.49058594 787.44832031 -200.64914062 788.18179688 -200.8125 788.9375 C-200.96332031 789.66839844 -201.11414063 790.39929688 -201.26953125 791.15234375 C-201.63111328 792.06693359 -201.63111328 792.06693359 -202 793 C-202.99 793.33 -203.98 793.66 -205 794 C-205.33 795.98 -205.66 797.96 -206 800 C-206.99 800 -207.98 800 -209 800 C-209 801.32 -209 802.64 -209 804 C-209.99 804.66 -210.98 805.32 -212 806 C-212.33 806.99 -212.66 807.98 -213 809 C-216.44444444 812 -216.44444444 812 -219 812 C-219.0825 812.721875 -219.165 813.44375 -219.25 814.1875 C-220.66824764 819.50592865 -224.53009598 822.98281479 -229 826 C-230.32 826 -231.64 826 -233 826 C-234.20628008 828.33214148 -235.1654738 830.49642139 -236 833 C-237.32 833 -238.64 833 -240 833 C-240.556875 833.928125 -241.11375 834.85625 -241.6875 835.8125 C-244.7936421 840.09393911 -248.0099068 840.78446448 -253 842 C-253 842.66 -253 843.32 -253 844 C-254.60875 844.1546875 -254.60875 844.1546875 -256.25 844.3125 C-259.97829646 844.99602102 -261.19023731 845.67467915 -264 848 C-265.33174114 848.33963868 -266.66545118 848.67156684 -268 849 C-268.88429688 849.35835937 -269.76859375 849.71671875 -270.6796875 850.0859375 C-295.70671541 860.18241575 -334.19870398 861.97668225 -359.5625 852 C-361.04172077 851.33345338 -362.52088918 850.66679057 -364 850 C-365.6588891 849.39490289 -367.32560869 848.81077561 -369 848.25 C-369.721875 848.00765625 -370.44375 847.7653125 -371.1875 847.515625 C-373.00654266 846.90879139 -373.00654266 846.90879139 -375 847 C-375 846.34 -375 845.68 -375 845 C-375.928125 844.896875 -376.85625 844.79375 -377.8125 844.6875 C-381.29487503 843.9363995 -381.70132257 843.48257162 -384 841 C-386.31973397 839.62534283 -388.63575951 838.29196328 -391 837 C-395.00531108 834.80661536 -397.77759571 832.22240429 -401 829 C-401.66 829 -402.32 829 -403 829 C-404.3671875 827.57421875 -404.3671875 827.57421875 -405.875 825.6875 C-407.63412624 823.54558101 -409.06034247 821.95596631 -411.3125 820.3125 C-413 819 -413 819 -413.375 817.0625 C-413.86640594 814.62608394 -413.86640594 814.62608394 -417 813.125 C-420 811 -420 811 -420.625 808 C-420.74875 807.01 -420.8725 806.02 -421 805 C-422.29355827 803.62804426 -423.62298702 802.28817344 -425 801 C-425 800.01 -425 799.02 -425 798 C-425.66 797.67 -426.32 797.34 -427 797 C-430 790.76923077 -430 790.76923077 -430 787 C-430.66 787 -431.32 787 -432 787 C-432.185625 785.576875 -432.185625 785.576875 -432.375 784.125 C-432.71687177 780.91332809 -432.71687177 780.91332809 -435 779 C-434.67 778.01 -434.34 777.02 -434 776 C-434.66 776 -435.32 776 -436 776 C-438.64398107 764.58272038 -438.33699897 753.07024617 -438.38232422 741.42016602 C-438.39819056 739.14081787 -438.41484903 736.86147512 -438.43223572 734.58213806 C-438.47645746 728.4215836 -438.50816511 722.26102724 -438.53644323 716.10038114 C-438.55470499 712.25021929 -438.5757113 708.40008242 -438.59769058 704.54994011 C-438.67038681 691.80788661 -438.73497946 679.06584206 -438.78904222 666.32369865 C-438.7919493 665.63881413 -438.79485639 664.95392961 -438.79785156 664.24829102 C-438.80076042 663.56256596 -438.80366927 662.8768409 -438.80666627 662.1703363 C-438.85442606 651.03252381 -438.92211605 639.89493146 -438.99868761 628.75728322 C-439.07719436 617.30425221 -439.14035841 605.85124833 -439.18866169 594.39804405 C-439.21601584 587.97436657 -439.24966423 581.55087185 -439.29885483 575.12732124 C-439.34451668 569.09524476 -439.37101283 563.06338793 -439.38261604 557.03115273 C-439.39015624 554.8159413 -439.40459204 552.60074121 -439.42636299 550.38562393 C-439.45497352 547.36618338 -439.45889841 544.34769213 -439.45651245 541.32814026 C-439.47777956 540.00821472 -439.47777956 540.00821472 -439.49947631 538.66162401 C-439.47068642 534.57705185 -439.34735521 532.54088723 -437.08987617 529.02563381 C-435.17060969 527.16536518 -433.25333465 525.38308323 -431.1875 523.6875 C-427.65632354 520.67946079 -424.70626839 517.43643045 -421.71484375 513.90234375 C-419.57955658 511.53358555 -417.2179933 509.58920527 -414.7578125 507.5703125 C-412.11313191 505.20773117 -409.90889962 502.5038151 -407.6171875 499.8046875 C-405.62034948 497.57633203 -403.33420913 495.86736731 -401 494 C-399.18622912 492.02248591 -397.44154495 489.99430244 -395.6953125 487.95703125 C-392.12171374 483.83174789 -388.24906216 480.39924973 -384 477 C-379.78985848 473.02375523 -375.99918269 468.67541112 -372.140625 464.36328125 C-369.83872027 461.82194483 -367.45832909 459.39004217 -365 457 C-364.154375 456.113125 -363.30875 455.22625 -362.4375 454.3125 C-360 452 -360 452 -357.8125 450.9375 C-355.85040679 450.15270136 -355.85040679 450.15270136 -355.12890625 448.19140625 C-353.80219001 445.6160159 -352.2051339 444.00948785 -350.125 442 C-349.44695312 441.34 -348.76890625 440.68 -348.0703125 440 C-347.38710938 439.34 -346.70390625 438.68 -346 438 C-344.66398661 436.66935212 -343.33080089 435.33586097 -342 434 C-339.51939523 431.51542627 -337.03552024 429.03501361 -334.53515625 426.5703125 C-330.72625757 422.80353435 -326.97306592 419.07281118 -323.5625 414.9375 C-321 412 -321 412 -318 411 C-317.67 410.01 -317.34 409.02 -317 408 C-315.51294684 406.73923754 -314.0223766 405.48148153 -312.4921875 404.2734375 C-310.67850185 402.72563247 -309.41370654 400.90850382 -308 399 C-307.34 399 -306.68 399 -306 399 C-305.74863281 398.40960937 -305.49726562 397.81921875 -305.23828125 397.2109375 C-303.84513594 394.72349193 -302.39035239 393.41929277 -300.1875 391.625 C-296.66034097 388.64537829 -293.88861058 385.59124558 -291 382 C-289.3563186 380.31066078 -287.6857124 378.64740076 -286 377 C-285.31679688 376.30648438 -284.63359375 375.61296875 -283.9296875 374.8984375 C-280.51500444 371.43745365 -277.12874343 368.03180202 -273.375 364.9375 C-270.06122974 362.19268333 -267.38388854 359.06941882 -264.67578125 355.734375 C-263 354 -263 354 -260.85546875 352.953125 C-258.64112906 352.08899804 -258.64112906 352.08899804 -258 349 C-256.01739574 347.31267723 -254.0167658 345.64633943 -252 344 C-251.34 343.01 -250.68 342.02 -250 341 C-249.34 341 -248.68 341 -248 341 C-247.731875 340.401875 -247.46375 339.80375 -247.1875 339.1875 C-246.00082594 337.00152146 -244.90400887 335.58667406 -243 334 C-242.34 334 -241.68 334 -241 334 C-240.34 332.68 -239.68 331.36 -239 330 C-238.34 330 -237.68 330 -237 330 C-236.67 329.01 -236.34 328.02 -236 327 C-234.4765625 325.53515625 -234.4765625 325.53515625 -232.625 324.0625 C-229.98088197 321.89421507 -228.02158212 319.76637554 -226 317 C-225.34 317 -224.68 317 -224 317 C-223.76410156 316.42507813 -223.52820313 315.85015625 -223.28515625 315.2578125 C-221.71320727 312.49615138 -219.8593935 310.92925083 -217.4375 308.875 C-213.82588531 305.71548672 -210.53792524 302.48348514 -207.375 298.875 C-204.0986258 295.14293291 -200.69940476 291.85399507 -196.91015625 288.65234375 C-193.77136653 285.93719436 -190.90059476 282.96473568 -188 280 C-178 270 -178 270 -175.3125 267.6875 C-169.26882981 260.66377519 -170.74727693 250.43719444 -170.82055664 241.70239258 C-170.82603906 240.15582571 -170.83058641 238.60925529 -170.83427429 237.06268311 C-170.84395277 233.74352226 -170.85975033 230.42446774 -170.88023567 227.10535622 C-170.91219683 221.84618799 -170.92758035 216.58704983 -170.94029236 211.32780457 C-170.97429719 198.26270351 -171.0268634 185.19768516 -171.0894165 172.13269043 C-171.13800253 161.97981071 -171.18004212 151.82700722 -171.20092481 141.67402762 C-171.21237874 136.45737918 -171.23766489 131.24104586 -171.27367222 126.02451193 C-171.29301512 122.76363209 -171.29956203 119.50281417 -171.30273628 116.24188232 C-171.30671784 114.74279641 -171.31580297 113.24371284 -171.33069992 111.74469566 C-171.41965608 102.4495273 -170.5164657 93.98159935 -168 85 C-167.81211442 84.28320981 -167.62422884 83.56641962 -167.43064976 82.82790852 C-166.51760552 79.44361945 -165.29992793 76.24981981 -164 73 C-164 72.34 -164 71.68 -164 71 C-163.34 71 -162.68 71 -162 71 C-161.855625 70.236875 -161.71125 69.47375 -161.5625 68.6875 C-161 66 -161 66 -160 63 C-159.34 62.67 -158.68 62.34 -158 62 C-157.60828247 60.34608154 -157.27942455 58.67654729 -157 57 C-156 54 -156 54 -153 52 C-153 51.34 -153 50.68 -153 50 C-152.01 50 -151.02 50 -150 50 C-149.896875 49.401875 -149.79375 48.80375 -149.6875 48.1875 C-148.90614947 45.70138466 -147.85104584 44.77056558 -146 43 C-146 42.34 -146 41.68 -146 41 C-144.48708078 39.78308671 -142.97340786 38.56707634 -141.453125 37.359375 C-139.48120103 35.51467193 -138.9023529 33.51369736 -138 31 C-134.78932471 27.14718965 -134.78932471 27.14718965 -132.09375 26.64453125 C-129.2431748 25.76702209 -128.22151555 24.24361083 -126.375 21.9375 C-125.29107602 20.59087828 -124.17371898 19.26911978 -123 18 C-122.34 18 -121.68 18 -121 18 C-120.67 17.34 -120.34 16.68 -120 16 C-117.41225673 14.48304705 -114.92528027 13.62684577 -112 13 C-112 12.01 -112 11.02 -112 10 C-110.02 10.495 -110.02 10.495 -108 11 C-107.67 10.34 -107.34 9.68 -107 9 C-106.34 9.33 -105.68 9.66 -105 10 C-104.34 8.68 -103.68 7.36 -103 6 C-102.01 6.33 -101.02 6.66 -100 7 C-100 6.34 -100 5.68 -100 5 C-93.37609832 2.44948832 -86.94371621 0.4559405 -80 -1 C-79.67 -1.33 -79.34 -1.66 -79 -2 C-53.67682342 -6.38039797 -25.00194899 -5.77440591 0 0 Z " fill="#277BFF" transform="translate(829,118)"/>
<path d="M0 0 C0 0.66 0 1.32 0 2 C0.99 2.33 1.98 2.66 3 3 C5.0394102 3.98681139 7.04848932 5.02497935 9.0625 6.0625 C11.13410175 7.11611949 11.13410175 7.11611949 14 8 C14.825 8.680625 15.65 9.36125 16.5 10.0625 C18.86805832 12.30628583 18.86805832 12.30628583 22 12 C22 12.99 22 13.98 22 15 C23.32 15 24.64 15 26 15 C26.33 16.32 26.66 17.64 27 19 C27.556875 19.061875 28.11375 19.12375 28.6875 19.1875 C33.01710324 20.70871195 35.52312268 24.28468402 38 28 C38.845625 28.45375 39.69125 28.9075 40.5625 29.375 C43 31 43 31 43.5625 33.5625 C43.7790625 34.7690625 43.7790625 34.7690625 44 36 C45.9001177 37.24174796 45.9001177 37.24174796 48 38 C50 40 50 40 51 43 C51.99 43.33 52.98 43.66 54 44 C54.33333333 45.33333333 54.66666667 46.66666667 55 48 C55.99 48.33 56.98 48.66 58 49 C58.5625 50.8125 58.5625 50.8125 59 53 C60.2748112 56.15973246 60.2748112 56.15973246 63 58 C63 58.66 63 59.32 63 60 C63.47050781 60.43957031 63.94101562 60.87914062 64.42578125 61.33203125 C66.37951793 63.4021195 66.6649824 64.91413734 67.1875 67.6875 C67.34605469 68.49574219 67.50460937 69.30398437 67.66796875 70.13671875 C67.77753906 70.75160156 67.88710938 71.36648437 68 72 C68.66 72 69.32 72 70 72 C69.67 73.32 69.34 74.64 69 76 C69.66 76 70.32 76 71 76 C72.14361098 79.66810727 72.15526512 83.15028531 72.19859314 86.97715759 C72.20776451 87.67941847 72.21693588 88.38167935 72.22638518 89.10522085 C72.25578874 91.45805685 72.27821099 93.81090532 72.30053711 96.16381836 C72.31994016 97.85085936 72.33968323 99.53789647 72.35974121 101.22492981 C72.42343172 106.76316529 72.47628687 112.30147922 72.52734375 117.83984375 C72.53615169 118.78205127 72.54495963 119.72425879 72.55403447 120.69501805 C72.63668915 129.5791336 72.71522607 138.46327702 72.78415585 147.34751034 C72.87261296 158.71328273 72.98123149 170.07846521 73.11728281 181.44377035 C73.21128045 189.43524516 73.28227002 197.42672578 73.33616835 205.41857058 C73.36899047 210.19266889 73.41203506 214.96617038 73.47974968 219.73991203 C73.5429383 224.22889038 73.57768486 228.71719084 73.59053802 233.20658684 C73.60021656 234.85423228 73.62022821 236.5018542 73.65131569 238.14923477 C73.69220484 240.39896994 73.6958823 242.64582812 73.69029236 244.89585876 C73.70770178 246.78373312 73.70770178 246.78373312 73.72546291 248.70974636 C72.70799397 253.32435977 70.80276814 254.30538194 67 257 C65.40118692 258.70963722 65.40118692 258.70963722 64.125 260.375 C61.33324483 263.75295048 58.20540395 266.48633956 54.87109375 269.31640625 C52.7847351 271.11306898 52.7847351 271.11306898 50.5 274 C48.53911184 276.35306579 46.80374282 278.10911806 44.5 280.0625 C36.89173558 286.55912047 29.66718598 293.7509658 23.1875 301.375 C19.84165551 305.30636728 16.16580292 308.9355013 12 312 C11.34 312 10.68 312 10 312 C9.74476563 312.57105469 9.48953125 313.14210938 9.2265625 313.73046875 C5.7021644 320.25172765 -0.23266789 325.31804269 -5.84375 330.02734375 C-9.48580853 333.35929947 -12.66339122 337.11903974 -15.8984375 340.83984375 C-16.59195313 341.55269531 -17.28546875 342.26554687 -18 343 C-18.66 343 -19.32 343 -20 343 C-20.20625 343.556875 -20.4125 344.11375 -20.625 344.6875 C-22.57683032 347.97012371 -24.94230994 349.70673246 -28 352 C-28.66 352 -29.32 352 -30 352 C-30.37125 352.8353125 -30.37125 352.8353125 -30.75 353.6875 C-32.22924818 356.42410913 -33.93467439 358.67650869 -36 361 C-36.66 361 -37.32 361 -38 361 C-38.33 361.99 -38.66 362.98 -39 364 C-42.29182936 367.82186968 -44.84500184 369.89000017 -49.9375 370.375 C-50.948125 370.25125 -51.95875 370.1275 -53 370 C-53 369.34 -53 368.68 -53 368 C-53.763125 367.855625 -54.52625 367.71125 -55.3125 367.5625 C-60.35691034 366.50669318 -62.54786148 364.81552152 -66 361 C-66.495 359.515 -66.495 359.515 -67 358 C-68.31634946 357.3003956 -69.65244213 356.63742451 -71 356 C-72.73583984 354.4753418 -72.73583984 354.4753418 -74.4609375 352.69921875 C-75.09773438 352.05146484 -75.73453125 351.40371094 -76.390625 350.73632812 C-77.04546875 350.06021484 -77.7003125 349.38410156 -78.375 348.6875 C-83.61162221 343.27111892 -83.61162221 343.27111892 -89.24609375 338.28125 C-91.69416315 336.2533457 -93.66485473 334.25004686 -95.6875 331.8125 C-97.76108797 329.31942756 -99.25541566 327.82972289 -102 326 C-102.12375 325.401875 -102.2475 324.80375 -102.375 324.1875 C-103.32311842 320.86908553 -105.49549364 319.34116899 -108 317 C-109.16909469 315.81489031 -110.33565045 314.62727203 -111.5 313.4375 C-113.58432477 311.33949257 -115.60245982 309.52572312 -117.9375 307.6875 C-118.618125 307.130625 -119.29875 306.57375 -120 306 C-120 305.34 -120 304.68 -120 304 C-120.598125 303.731875 -121.19625 303.46375 -121.8125 303.1875 C-124.04679397 301.97459756 -125.28237004 300.85504036 -127 299 C-128.665195 297.33186296 -130.33216579 295.66549831 -132 294 C-133.01489691 292.97452609 -134.02920298 291.94846716 -135.04296875 290.921875 C-136.09112308 289.86456077 -137.13930038 288.80726933 -138.1875 287.75 C-138.72052734 287.20859375 -139.25355469 286.6671875 -139.80273438 286.109375 C-142.62507537 283.19242899 -142.62507537 283.19242899 -146 281 C-146 280.34 -146 279.68 -146 279 C-146.61875 278.7525 -147.2375 278.505 -147.875 278.25 C-150.4397476 276.74132494 -150.73533905 275.6429993 -152 273 C-155.07813219 268.21580628 -157.39864782 264.72349298 -163 263 C-165.8125 261 -165.8125 261 -168 259 C-168 258.34 -168 257.68 -168 257 C-169.32 256.34 -170.64 255.68 -172 255 C-172 254.34 -172 253.68 -172 253 C-172.66 253 -173.32 253 -174 253 C-174.046755 230.72943164 -174.08200601 208.4588714 -174.10362434 186.18826389 C-174.11392964 175.84725362 -174.12797573 165.50627388 -174.15087891 155.1652832 C-174.1708356 146.1503435 -174.18372186 137.13542592 -174.18817699 128.12046474 C-174.1907805 123.34870506 -174.19688439 118.57700862 -174.21146011 113.80526924 C-174.22508003 109.30982851 -174.22921374 104.81447682 -174.22621536 100.31901741 C-174.22676356 98.67314672 -174.23071465 97.02727292 -174.23841095 95.38142014 C-174.27410371 87.35163354 -174.22683976 79.79166426 -172 72 C-171.34 72 -170.68 72 -170 72 C-169.37542727 68.56484998 -169 65.50935186 -169 62 C-167.515 61.505 -167.515 61.505 -166 61 C-164.6028008 58.85255329 -164.6028008 58.85255329 -163.4375 56.25 C-163.02371094 55.38890625 -162.60992187 54.5278125 -162.18359375 53.640625 C-161.38725484 51.86397451 -160.65062527 50.05947791 -159.97265625 48.234375 C-159 46 -159 46 -157 45 C-157 44.34 -157 43.68 -157 43 C-156.01 42.505 -156.01 42.505 -155 42 C-153.98648336 40.34151823 -152.98879205 38.67334039 -152 37 C-151.29875 36.13375 -150.5975 35.2675 -149.875 34.375 C-147.83289928 32.06477194 -147.83289928 32.06477194 -147 29 C-146.01 29 -145.02 29 -144 29 C-144 28.34 -144 27.68 -144 27 C-141.35153397 24.63785462 -139.38483604 23.12827868 -136 22 C-135.0409375 20.4840625 -135.0409375 20.4840625 -134.0625 18.9375 C-133.381875 17.968125 -132.70125 16.99875 -132 16 C-130.68 16 -129.36 16 -128 16 C-128 15.34 -128 14.68 -128 14 C-125.36 12.68 -122.72 11.36 -120 10 C-120 9.34 -120 8.68 -120 8 C-110.58997722 4.74031891 -110.58997722 4.74031891 -106 4 C-105.67 3.01 -105.34 2.02 -105 1 C-104.01 1.495 -104.01 1.495 -103 2 C-103 1.34 -103 0.68 -103 0 C-99.535 -0.495 -99.535 -0.495 -96 -1 C-96 -1.66 -96 -2.32 -96 -3 C-95.484375 -3.12375 -94.96875 -3.2475 -94.4375 -3.375 C-92.53668246 -3.86238911 -90.64662638 -4.39180901 -88.76171875 -4.9375 C-60.12785035 -13.02515546 -27.5832043 -11.03328172 0 0 Z " fill="#277BFF" transform="translate(290,123)"/>
<path d="M0 0 C2.75 -0.3125 2.75 -0.3125 6 0 C7.37073786 1.63604196 8.70055256 3.30678061 10 5 C11.155 5.495 12.31 5.99 13.5 6.5 C17.30956153 8.13266923 18.78848619 9.55003845 21 13 C21 13.66 21 14.32 21 15 C21.99 15.33 22.98 15.66 24 16 C25.5078125 17.6015625 25.5078125 17.6015625 27.125 19.625 C29.73672485 22.7236566 32.37824946 25.2007596 35.625 27.625 C39.39461437 30.44093415 42.24669948 33.18090572 45 37 C45 37.66 45 38.32 45 39 C45.99 39.33 46.98 39.66 48 40 C49.68873879 41.64429829 51.35305515 43.31384218 53 45 C53.78375 45.598125 54.5675 46.19625 55.375 46.8125 C58.37008809 49.30840674 60.76362073 52.07221408 63.28515625 55.03515625 C64.773028 56.73993869 66.30241581 58.31402728 67.9375 59.875 C70 62 70 62 70 64 C70.58523438 64.25652344 71.17046875 64.51304687 71.7734375 64.77734375 C74.19234608 66.10562162 75.73198872 67.56524801 77.625 69.5625 C80.04521959 72.14015389 80.04521959 72.14015389 83 74 C83.0825 74.721875 83.165 75.44375 83.25 76.1875 C84.3097345 80.16150437 86.72090401 82.57331538 90 85 C91.32740837 85.35619645 92.66096132 85.69038038 94 86 C98.97981111 89.65186148 103.30247756 94.04444478 107 99 C107 99.66 107 100.32 107 101 C107.5775 101.226875 108.155 101.45375 108.75 101.6875 C112.15492424 103.67370581 114.33694794 106.43709156 115.875 110.0625 C117.00170739 112.33397938 117.00170739 112.33397938 120.125 114.0625 C121.07375 114.701875 122.0225 115.34125 123 116 C123 116.99 123 117.98 123 119 C123.66 119.33 124.32 119.66 125 120 C125.02335161 142.60042667 125.04099032 165.20085136 125.05181217 187.80128765 C125.05697031 198.29485667 125.06400386 208.78841821 125.07543945 219.28198242 C125.08540098 228.42726277 125.09185694 237.5725377 125.09408849 246.71782333 C125.0953931 251.56097543 125.09846319 256.40411201 125.10573006 261.24725914 C125.11251341 265.80504869 125.11461222 270.36281631 125.11310768 274.92061043 C125.11338296 276.59395848 125.11537436 278.26730725 125.11920547 279.94065094 C125.12417884 282.22479912 125.1229848 284.50886444 125.12025452 286.79301453 C125.12163721 288.71080483 125.12163721 288.71080483 125.12304783 290.66733837 C124.94947037 295.36855849 124.19406748 298.86999063 122 303 C121.71125 303.825 121.4225 304.65 121.125 305.5 C119.85372077 308.32506495 118.2077395 309.86585182 116 312 C116 312.66 116 313.32 116 314 C115.34 314.33 114.68 314.66 114 315 C113.67 315.99 113.34 316.98 113 318 C112.34 318 111.68 318 111 318 C110.814375 319.175625 110.814375 319.175625 110.625 320.375 C110 323 110 323 108 325 C108 325.66 108 326.32 108 327 C106.66666667 328 105.33333333 329 104 330 C104 330.66 104 331.32 104 332 C102.00715862 333.3440093 100.00580329 334.67541292 98 336 C96.28891311 337.62102968 94.62746694 339.29503463 93 341 C92.31035156 341.66902344 91.62070312 342.33804687 90.91015625 343.02734375 C90.17667969 343.74019531 89.44320312 344.45304687 88.6875 345.1875 C87.64142578 346.19876953 87.64142578 346.19876953 86.57421875 347.23046875 C84.77844303 348.85430903 84.77844303 348.85430903 85 351 C84.34 351 83.68 351 83 351 C83 351.66 83 352.32 83 353 C82.38125 353.103125 81.7625 353.20625 81.125 353.3125 C78.63473516 353.87525373 78.63473516 353.87525373 77 357 C75.125 358.09765625 75.125 358.09765625 73 359.0625 C70.45629163 360.22680769 69.00643448 360.99356552 67 363 C65.35008418 363.70710678 63.68437744 364.37943989 62 365 C62 365.66 62 366.32 62 367 C61.2575 367.144375 60.515 367.28875 59.75 367.4375 C58.8425 367.623125 57.935 367.80875 57 368 C56.319375 368.12375 55.63875 368.2475 54.9375 368.375 C52.88408109 368.91090076 52.88408109 368.91090076 51.125 370.5 C48.46395426 372.37838523 46.20015886 372.63634558 43 373 C43 373.66 43 374.32 43 375 C41.948125 374.9071875 41.948125 374.9071875 40.875 374.8125 C37.90407803 374.81460503 37.90407803 374.81460503 35.203125 376.4375 C18.9514549 384.36514395 -11.62615772 382.43103409 -28.59765625 377.19921875 C-30.41984974 376.52111853 -32.21474401 375.77011043 -34 375 C-34.66 375 -35.32 375 -36 375 C-36 374.34 -36 373.68 -36 373 C-37.32 373.33 -38.64 373.66 -40 374 C-40 373.34 -40 372.68 -40 372 C-40.721875 372.0825 -41.44375 372.165 -42.1875 372.25 C-45 372 -45 372 -47.375 370.0625 C-50.58805729 367.53795498 -52.9846174 367.31493197 -57 367 C-57.495 365.515 -57.495 365.515 -58 364 C-61.32091002 362.29466783 -63.18492784 362 -67 362 C-67.495 360.515 -67.495 360.515 -68 359 C-68.99 359 -69.98 359 -71 359 C-71.33 358.34 -71.66 357.68 -72 357 C-72.99 356.67 -73.98 356.34 -75 356 C-75.6875 353.9375 -75.6875 353.9375 -76 352 C-76.66 352 -77.32 352 -78 352 C-78.66 351.34 -79.32 350.68 -80 350 C-80.66 350 -81.32 350 -82 350 C-85 346.53846154 -85 346.53846154 -85 344 C-85.58265625 343.731875 -86.1653125 343.46375 -86.765625 343.1875 C-89.02786601 341.98519009 -90.80576318 340.66174087 -92.75 339 C-93.36359375 338.484375 -93.9771875 337.96875 -94.609375 337.4375 C-96 336 -96 336 -96 334 C-96.66 333.67 -97.32 333.34 -98 333 C-98.33 332.01 -98.66 331.02 -99 330 C-99.99 329.34 -100.98 328.68 -102 328 C-102 327.34 -102 326.68 -102 326 C-102.66 325.67 -103.32 325.34 -104 325 C-106 322 -106 322 -107 320 C-106.67 319.34 -106.34 318.68 -106 318 C-106.66 318 -107.32 318 -108 318 C-109.20628008 315.66785852 -110.1654738 313.50357861 -111 311 C-111.66 311 -112.32 311 -113 311 C-113 309.68 -113 308.36 -113 307 C-113.639375 306.443125 -114.27875 305.88625 -114.9375 305.3125 C-117.66228748 302.25743525 -117.59598271 299.91013044 -117.82421875 295.92578125 C-117.79352634 293.99317253 -117.79352634 293.99317253 -119 293 C-120.29376877 283.94680746 -120.14337339 274.75044759 -120.12939453 265.62792969 C-120.13075286 264.1219173 -120.1325352 262.61590524 -120.13470459 261.1098938 C-120.13922608 257.0564691 -120.13751173 253.00307013 -120.1343255 248.94964504 C-120.13177627 244.69065219 -120.13414637 240.4316614 -120.13571167 236.17266846 C-120.13752513 229.02786874 -120.1351479 221.88307939 -120.13037109 214.73828125 C-120.12492172 206.49255315 -120.12669935 198.24684975 -120.1321975 190.00112224 C-120.13674218 182.89932569 -120.13737279 175.79753656 -120.13475883 168.69573903 C-120.13320459 164.46356505 -120.13297902 160.23140266 -120.13629532 155.99922943 C-120.13919404 152.02319562 -120.13716168 148.04719357 -120.13140106 144.07116318 C-120.13008454 142.61676206 -120.13044866 141.16235825 -120.13266373 139.70795822 C-120.15307799 124.9371925 -120.15307799 124.9371925 -119 119 C-116.9375 117 -116.9375 117 -115 116 C-115.33 115.01 -115.66 114.02 -116 113 C-115.443125 112.773125 -114.88625 112.54625 -114.3125 112.3125 C-111.340451 110.62566138 -109.39341 108.44757487 -107 106 C-105.94924863 104.94658639 -104.89710685 103.89455828 -103.84375 102.84375 C-103.29589844 102.29589844 -102.74804688 101.74804688 -102.18359375 101.18359375 C-97.15625 96.15625 -97.15625 96.15625 -95.54296875 94.55078125 C-94.53502317 93.53773215 -93.53707232 92.51461221 -92.55078125 91.48046875 C-91.40265328 90.28520357 -90.20539643 89.13748677 -89 88 C-88.34 88 -87.68 88 -87 88 C-86.79375 87.443125 -86.5875 86.88625 -86.375 86.3125 C-84.83059277 83.71508783 -82.93722357 82.15679307 -80.5859375 80.29296875 C-78.21929442 78.36351343 -76.12815341 76.18567107 -74 74 C-73.443125 73.484375 -72.88625 72.96875 -72.3125 72.4375 C-70.90870144 71.06112258 -70.90870144 71.06112258 -70.25 69.21875 C-68.54904627 66.19955713 -66.28609225 64.34461958 -63.6875 62.0625 C-60.00264209 58.80997194 -56.47198331 55.4778981 -53 52 C-52.21625 51.401875 -51.4325 50.80375 -50.625 50.1875 C-47.56569649 47.63808041 -45.16831064 44.77990822 -42.6484375 41.70703125 C-41 40 -41 40 -38 39 C-37.67 38.01 -37.34 37.02 -37 36 C-36.34 36 -35.68 36 -35 36 C-34.76410156 35.42507813 -34.52820313 34.85015625 -34.28515625 34.2578125 C-32.71320727 31.49615138 -30.8593935 29.92925083 -28.4375 27.875 C-23.84383519 23.86137704 -19.79819311 19.58076631 -15.8125 14.96875 C-14 13 -14 13 -12 12 C-11.34444881 9.47266765 -11.34444881 9.47266765 -11 7 C-9.68 7 -8.36 7 -7 7 C-6.62875 6.0409375 -6.62875 6.0409375 -6.25 5.0625 C-5 3 -5 3 -2.9375 2.375 C-2.298125 2.25125 -1.65875 2.1275 -1 2 C-0.67 1.34 -0.34 0.68 0 0 Z " fill="#277BFF" transform="translate(783,529)"/>
<path d="" fill="#277BFF" transform="translate(0,0)"/>
<path d="" fill="#277BFF" transform="translate(0,0)"/>
</svg>
